STARTFONT 2.1
FONT -FontForge-Fredoka One-Book-R-Normal--18-180-72-72-P-103-ISO10646-1
SIZE 18 72 72
FONTBOUNDINGBOX 23 22 -2 -4
COMMENT "Generated by fontforge, http://fontforge.sourceforge.net"
COMMENT "Copyright (c) 2011 Milena B Brandao (milenabbrandao@gmail.com), with Reserved Font Name "Fredoka""
STARTPROPERTIES 39
FOUNDRY "FontForge"
FAMILY_NAME "Fredoka One"
WEIGHT_NAME "Book"
SLANT "R"
SETWIDTH_NAME "Normal"
ADD_STYLE_NAME ""
PIXEL_SIZE 18
POINT_SIZE 180
RESOLUTION_X 72
RESOLUTION_Y 72
SPACING "P"
AVERAGE_WIDTH 103
CHARSET_REGISTRY "ISO10646"
CHARSET_ENCODING "1"
FONTNAME_REGISTRY ""
CHARSET_COLLECTIONS "ISO10646-1"
FONT_NAME "FredokaOne-Regular"
FACE_NAME "Fredoka One"
COPYRIGHT "Copyright (c) 2011 Milena B Brandao (milenabbrandao@gmail.com), with Reserved Font Name "Fredoka""
FONT_VERSION "1.001"
FONT_ASCENT 14
FONT_DESCENT 4
UNDERLINE_POSITION -2
UNDERLINE_THICKNESS 1
X_HEIGHT 9
CAP_HEIGHT 13
RAW_ASCENT 800
RAW_DESCENT 200
NORM_SPACE 5
RELATIVE_WEIGHT 40
RELATIVE_SETWIDTH 50
SUPERSCRIPT_X 0
SUPERSCRIPT_Y 8
SUPERSCRIPT_SIZE 11
SUBSCRIPT_X 0
SUBSCRIPT_Y 2
SUBSCRIPT_SIZE 11
AVG_LOWERCASE_WIDTH 103
AVG_UPPERCASE_WIDTH 124
ENDPROPERTIES
CHARS 235
STARTCHAR space
ENCODING 32
SWIDTH 253 0
DWIDTH 5 0
BBX 1 1 0 0
BITMAP
00
ENDCHAR
STARTCHAR exclam
ENCODING 33
SWIDTH 267 0
DWIDTH 5 0
BBX 3 13 1 0
BITMAP
E0
E0
E0
E0
E0
E0
E0
E0
00
00
E0
E0
E0
ENDCHAR
STARTCHAR quotedbl
ENCODING 34
SWIDTH 429 0
DWIDTH 8 0
BBX 7 6 0 7
BITMAP
66
EE
EE
66
66
66
ENDCHAR
STARTCHAR numbersign
ENCODING 35
SWIDTH 749 0
DWIDTH 13 0
BBX 13 13 0 0
BITMAP
0E70
0C70
0C60
7FF8
7FF8
7FF8
1CE0
18E0
FFF0
FFF0
38C0
39C0
31C0
ENDCHAR
STARTCHAR dollar
ENCODING 36
SWIDTH 475 0
DWIDTH 9 0
BBX 8 15 0 -1
BITMAP
18
18
1C
7F
7E
60
78
7E
1F
43
E7
7F
3E
18
18
ENDCHAR
STARTCHAR percent
ENCODING 37
SWIDTH 838 0
DWIDTH 15 0
BBX 13 15 1 -1
BITMAP
0060
7860
FCC0
CC80
CD80
FD00
FB00
0270
06F8
05D8
0D98
1998
18F8
3070
1000
ENDCHAR
STARTCHAR ampersand
ENCODING 38
SWIDTH 748 0
DWIDTH 13 0
BBX 13 14 0 0
BITMAP
0F00
3F80
3F80
3980
3B80
3F80
3E00
3C30
7E70
7F70
F7E0
7FF8
7FF8
3F78
ENDCHAR
STARTCHAR quotesingle
ENCODING 39
SWIDTH 208 0
DWIDTH 4 0
BBX 3 6 0 7
BITMAP
60
E0
E0
60
60
60
ENDCHAR
STARTCHAR parenleft
ENCODING 40
SWIDTH 384 0
DWIDTH 7 0
BBX 6 18 1 -4
BITMAP
1C
3C
70
60
E0
E0
C0
C0
C0
C0
C0
C0
E0
E0
E0
70
3C
1C
ENDCHAR
STARTCHAR parenright
ENCODING 41
SWIDTH 384 0
DWIDTH 7 0
BBX 6 18 0 -4
BITMAP
E0
F0
38
18
1C
1C
0C
0C
0C
0C
0C
0C
1C
1C
18
38
F0
E0
ENDCHAR
STARTCHAR asterisk
ENCODING 42
SWIDTH 503 0
DWIDTH 9 0
BBX 9 8 0 5
BITMAP
1C00
5D00
FF80
FF80
3E00
3E00
7700
3600
ENDCHAR
STARTCHAR plus
ENCODING 43
SWIDTH 527 0
DWIDTH 9 0
BBX 9 8 0 1
BITMAP
1C00
1C00
1C00
FF80
FF80
1C00
1C00
1C00
ENDCHAR
STARTCHAR comma
ENCODING 44
SWIDTH 238 0
DWIDTH 4 0
BBX 4 6 0 -3
BITMAP
70
F0
70
20
60
C0
ENDCHAR
STARTCHAR hyphen
ENCODING 45
SWIDTH 433 0
DWIDTH 8 0
BBX 7 3 0 2
BITMAP
FE
FE
3C
ENDCHAR
STARTCHAR period
ENCODING 46
SWIDTH 237 0
DWIDTH 4 0
BBX 4 3 0 0
BITMAP
70
F0
70
ENDCHAR
STARTCHAR slash
ENCODING 47
SWIDTH 526 0
DWIDTH 9 0
BBX 9 15 0 -1
BITMAP
0380
0380
0780
0700
0700
0E00
0E00
1C00
1C00
3800
3800
7000
7000
E000
6000
ENDCHAR
STARTCHAR zero
ENCODING 48
SWIDTH 608 0
DWIDTH 11 0
BBX 11 13 0 0
BITMAP
1F00
3F80
7FC0
71C0
71C0
F1C0
F1E0
F1C0
71C0
71C0
7FC0
3F80
1F00
ENDCHAR
STARTCHAR one
ENCODING 49
SWIDTH 407 0
DWIDTH 7 0
BBX 7 13 0 0
BITMAP
0E
1E
7E
FE
FE
7E
1E
1E
1E
1E
1E
1E
0C
ENDCHAR
STARTCHAR two
ENCODING 50
SWIDTH 609 0
DWIDTH 11 0
BBX 11 13 0 0
BITMAP
3F00
7F80
7FC0
71C0
F1C0
71C0
07C0
0F80
3F00
7C00
7FE0
FFE0
7FE0
ENDCHAR
STARTCHAR three
ENCODING 51
SWIDTH 608 0
DWIDTH 11 0
BBX 11 13 0 0
BITMAP
3F80
3F80
7FC0
71C0
07C0
0F80
0F80
07C0
61E0
F1C0
7FC0
7FC0
1F00
ENDCHAR
STARTCHAR four
ENCODING 52
SWIDTH 592 0
DWIDTH 11 0
BBX 10 13 0 0
BITMAP
39C0
39C0
79C0
71C0
71C0
71C0
FFC0
FFC0
FFC0
01C0
01C0
01C0
01C0
ENDCHAR
STARTCHAR five
ENCODING 53
SWIDTH 530 0
DWIDTH 10 0
BBX 9 13 0 0
BITMAP
7F80
7F80
7F80
7000
7C00
7F00
FF00
7780
0380
6380
FF80
7F00
3E00
ENDCHAR
STARTCHAR six
ENCODING 54
SWIDTH 560 0
DWIDTH 10 0
BBX 10 13 0 0
BITMAP
0F80
1F80
3F80
7C00
7000
7E00
7F80
FF80
F3C0
73C0
7F80
7F80
3F00
ENDCHAR
STARTCHAR seven
ENCODING 55
SWIDTH 561 0
DWIDTH 10 0
BBX 10 13 0 0
BITMAP
FFC0
FFC0
FFC0
0380
0780
0F00
0F00
1E00
1C00
3C00
3C00
3800
3800
ENDCHAR
STARTCHAR eight
ENCODING 56
SWIDTH 582 0
DWIDTH 10 0
BBX 10 13 0 0
BITMAP
3F00
7F80
7F80
73C0
7B80
3F80
7F80
7FC0
F1C0
71C0
7FC0
7F80
1F00
ENDCHAR
STARTCHAR nine
ENCODING 57
SWIDTH 560 0
DWIDTH 10 0
BBX 10 13 0 0
BITMAP
3F00
7F80
7F80
F380
73C0
7FC0
3FC0
1F80
0780
0F80
7F00
7E00
7800
ENDCHAR
STARTCHAR colon
ENCODING 58
SWIDTH 238 0
DWIDTH 4 0
BBX 4 9 0 0
BITMAP
70
F0
70
00
00
00
70
F0
70
ENDCHAR
STARTCHAR semicolon
ENCODING 59
SWIDTH 237 0
DWIDTH 4 0
BBX 4 12 0 -3
BITMAP
70
F0
70
00
00
00
70
F0
70
20
60
C0
ENDCHAR
STARTCHAR less
ENCODING 60
SWIDTH 627 0
DWIDTH 11 0
BBX 11 12 0 0
BITMAP
00E0
03E0
0FC0
1F00
7E00
F800
FC00
3E00
1F80
07E0
01E0
00C0
ENDCHAR
STARTCHAR equal
ENCODING 61
SWIDTH 478 0
DWIDTH 9 0
BBX 8 6 0 1
BITMAP
7F
FF
00
00
FF
7F
ENDCHAR
STARTCHAR greater
ENCODING 62
SWIDTH 627 0
DWIDTH 11 0
BBX 11 12 0 0
BITMAP
6000
F800
7E00
1F80
07C0
03E0
03E0
0FC0
3F00
7C00
F000
6000
ENDCHAR
STARTCHAR question
ENCODING 63
SWIDTH 512 0
DWIDTH 9 0
BBX 9 14 0 0
BITMAP
0800
3E00
7F00
F780
6380
0380
0F00
1E00
1C00
0000
0000
1C00
1C00
1C00
ENDCHAR
STARTCHAR at
ENCODING 64
SWIDTH 908 0
DWIDTH 16 0
BBX 16 14 0 -2
BITMAP
07E0
1FF8
3C3C
712E
67E6
67E7
EE63
EEE3
6FE3
67E7
70FE
387C
3F38
0F00
ENDCHAR
STARTCHAR A
ENCODING 65
SWIDTH 765 0
DWIDTH 14 0
BBX 14 13 0 0
BITMAP
0300
0780
0780
0FC0
0FC0
1FE0
1CE0
3CF0
3FF0
7FF8
7038
F03C
6038
ENDCHAR
STARTCHAR B
ENCODING 66
SWIDTH 646 0
DWIDTH 12 0
BBX 10 13 1 0
BITMAP
FF00
FF80
FFC0
E1C0
E1C0
EF80
EFC0
E3C0
E1C0
E1C0
FFC0
FF80
FF00
ENDCHAR
STARTCHAR C
ENCODING 67
SWIDTH 679 0
DWIDTH 12 0
BBX 12 13 0 0
BITMAP
0FC0
1FF0
3FF0
7860
7000
F000
F000
7000
7000
7860
3FF0
1FF0
0FC0
ENDCHAR
STARTCHAR D
ENCODING 68
SWIDTH 704 0
DWIDTH 13 0
BBX 11 13 1 0
BITMAP
FF00
FF80
FFC0
E3E0
E1E0
E0E0
E0E0
E0E0
E1E0
E3C0
FFC0
FF80
FE00
ENDCHAR
STARTCHAR E
ENCODING 69
SWIDTH 638 0
DWIDTH 11 0
BBX 10 13 1 0
BITMAP
FFC0
FFC0
FFC0
E000
E000
FF00
FF00
FF00
E000
E000
FFC0
FFC0
FFC0
ENDCHAR
STARTCHAR F
ENCODING 70
SWIDTH 637 0
DWIDTH 11 0
BBX 10 13 1 0
BITMAP
FFC0
FFC0
FFC0
E000
E000
FF00
FF00
FF00
E000
E000
E000
E000
E000
ENDCHAR
STARTCHAR G
ENCODING 71
SWIDTH 714 0
DWIDTH 13 0
BBX 12 13 0 0
BITMAP
0FE0
3FF0
3FE0
7860
7000
F3F0
F3F0
71F0
7070
7870
3FF0
1FF0
0FC0
ENDCHAR
STARTCHAR H
ENCODING 72
SWIDTH 699 0
DWIDTH 13 0
BBX 11 13 1 0
BITMAP
E0E0
E0E0
E0E0
E0E0
E0E0
FFE0
FFE0
FFE0
E0E0
E0E0
E0E0
E0E0
E0E0
ENDCHAR
STARTCHAR I
ENCODING 73
SWIDTH 257 0
DWIDTH 5 0
BBX 3 13 1 0
BITMAP
E0
E0
E0
E0
E0
E0
E0
E0
E0
E0
E0
E0
E0
ENDCHAR
STARTCHAR J
ENCODING 74
SWIDTH 549 0
DWIDTH 10 0
BBX 9 13 0 0
BITMAP
0380
0380
0380
0380
0380
0380
0380
0380
0380
6380
FF80
7F00
3E00
ENDCHAR
STARTCHAR K
ENCODING 75
SWIDTH 639 0
DWIDTH 12 0
BBX 10 13 1 0
BITMAP
E180
E3C0
E780
EF00
FE00
FC00
FC00
FE00
FF00
EF80
E780
E3C0
E180
ENDCHAR
STARTCHAR L
ENCODING 76
SWIDTH 587 0
DWIDTH 11 0
BBX 9 13 1 0
BITMAP
E000
E000
E000
E000
E000
E000
E000
E000
E000
E000
FF80
FF80
FF80
ENDCHAR
STARTCHAR M
ENCODING 77
SWIDTH 870 0
DWIDTH 16 0
BBX 14 13 1 0
BITMAP
E01C
F03C
F07C
F8FC
FCFC
FFFC
EFDC
EF9C
E71C
E21C
E01C
E01C
E01C
ENDCHAR
STARTCHAR N
ENCODING 78
SWIDTH 720 0
DWIDTH 13 0
BBX 11 13 1 0
BITMAP
E0E0
F0E0
F0E0
F8E0
FCE0
FEE0
EEE0
EFE0
E7E0
E3E0
E1E0
E1E0
E0E0
ENDCHAR
STARTCHAR O
ENCODING 79
SWIDTH 775 0
DWIDTH 14 0
BBX 14 13 0 0
BITMAP
0FC0
3FE0
3FF0
7878
7038
7038
F03C
7038
7038
7878
3FF0
1FE0
0FC0
ENDCHAR
STARTCHAR P
ENCODING 80
SWIDTH 632 0
DWIDTH 11 0
BBX 10 13 1 0
BITMAP
FF00
FF80
FF80
E3C0
E1C0
E1C0
FFC0
FF80
FF00
E000
E000
E000
E000
ENDCHAR
STARTCHAR Q
ENCODING 81
SWIDTH 830 0
DWIDTH 15 0
BBX 15 13 0 0
BITMAP
0FC0
3FE0
3FF0
7878
7038
7038
F03C
7038
7038
7878
3FFC
1FFE
0FCC
ENDCHAR
STARTCHAR R
ENCODING 82
SWIDTH 631 0
DWIDTH 11 0
BBX 10 13 1 0
BITMAP
FF00
FF80
FF80
E3C0
E1C0
E1C0
FFC0
FF80
FF80
E380
E3C0
E1C0
E1C0
ENDCHAR
STARTCHAR S
ENCODING 83
SWIDTH 583 0
DWIDTH 11 0
BBX 10 13 0 0
BITMAP
3F00
7F80
7F80
7100
7000
7F00
3F80
0FC0
21C0
71C0
FFC0
7F80
3F00
ENDCHAR
STARTCHAR T
ENCODING 84
SWIDTH 731 0
DWIDTH 13 0
BBX 13 13 0 0
BITMAP
FFF8
FFF8
0700
0700
0700
0700
0700
0700
0700
0700
0700
0700
0700
ENDCHAR
STARTCHAR U
ENCODING 85
SWIDTH 726 0
DWIDTH 13 0
BBX 11 13 1 0
BITMAP
E0E0
E0E0
E0E0
E0E0
E0E0
E0E0
E0E0
E0E0
E0E0
F1E0
7FC0
7FC0
1F00
ENDCHAR
STARTCHAR V
ENCODING 86
SWIDTH 783 0
DWIDTH 14 0
BBX 14 13 0 0
BITMAP
601C
F03C
7038
7878
3870
3CF0
1CE0
1EE0
0FC0
0FC0
0780
0780
0300
ENDCHAR
STARTCHAR W
ENCODING 87
SWIDTH 999 0
DWIDTH 18 0
BBX 18 13 0 0
BITMAP
E0C1C0
F1E3C0
71E380
71E380
7BF780
3BF700
3BF700
3F3F00
1F3E00
1F3E00
1E1E00
0E1C00
0E1C00
ENDCHAR
STARTCHAR X
ENCODING 88
SWIDTH 741 0
DWIDTH 13 0
BBX 13 14 0 0
BITMAP
2010
7038
F078
78F0
3DE0
1FE0
0FC0
0F80
1FC0
1FE0
3CF0
78F8
F078
6030
ENDCHAR
STARTCHAR Y
ENCODING 89
SWIDTH 686 0
DWIDTH 12 0
BBX 12 13 0 0
BITMAP
6070
F0F0
78E0
39E0
3FC0
1F80
0F80
0F00
0700
0700
0700
0700
0700
ENDCHAR
STARTCHAR Z
ENCODING 90
SWIDTH 643 0
DWIDTH 12 0
BBX 11 13 0 0
BITMAP
7FE0
FFE0
7FC0
03C0
0780
0F00
0F00
1E00
3C00
7800
7FE0
FFE0
7FE0
ENDCHAR
STARTCHAR bracketleft
ENCODING 91
SWIDTH 348 0
DWIDTH 6 0
BBX 5 18 1 -4
BITMAP
F8
F8
F8
E0
E0
E0
E0
E0
E0
E0
E0
E0
E0
E0
E0
F0
F8
F8
ENDCHAR
STARTCHAR backslash
ENCODING 92
SWIDTH 528 0
DWIDTH 10 0
BBX 9 15 0 -1
BITMAP
6000
F000
7000
7800
3800
3800
1C00
1C00
0E00
0E00
0700
0700
0380
0380
0380
ENDCHAR
STARTCHAR bracketright
ENCODING 93
SWIDTH 348 0
DWIDTH 6 0
BBX 6 18 0 -4
BITMAP
F8
FC
7C
1C
1C
1C
1C
1C
1C
1C
1C
1C
1C
1C
1C
7C
FC
F8
ENDCHAR
STARTCHAR asciicircum
ENCODING 94
SWIDTH 526 0
DWIDTH 9 0
BBX 8 6 1 4
BITMAP
10
38
7C
FE
E7
42
ENDCHAR
STARTCHAR underscore
ENCODING 95
SWIDTH 826 0
DWIDTH 15 0
BBX 15 2 0 -4
BITMAP
FFFE
FFFE
ENDCHAR
STARTCHAR grave
ENCODING 96
SWIDTH 482 0
DWIDTH 9 0
BBX 5 4 2 10
BITMAP
C0
F8
F8
18
ENDCHAR
STARTCHAR a
ENCODING 97
SWIDTH 596 0
DWIDTH 11 0
BBX 10 9 0 0
BITMAP
3FC0
7FC0
7FC0
71C0
F1C0
73C0
7FC0
3FC0
1DC0
ENDCHAR
STARTCHAR b
ENCODING 98
SWIDTH 592 0
DWIDTH 11 0
BBX 9 14 1 0
BITMAP
E000
E000
E000
E000
E000
FE00
FF00
FF80
E380
E380
F780
FF80
FF00
FE00
ENDCHAR
STARTCHAR c
ENCODING 99
SWIDTH 517 0
DWIDTH 9 0
BBX 9 10 0 0
BITMAP
0C00
3F00
7F80
7F00
7000
F000
7300
7F80
3F80
1F00
ENDCHAR
STARTCHAR d
ENCODING 100
SWIDTH 598 0
DWIDTH 11 0
BBX 9 14 1 0
BITMAP
0380
0380
0380
0380
0380
7F80
FF80
FF80
E380
E380
E780
FF80
7F80
3B80
ENDCHAR
STARTCHAR e
ENCODING 101
SWIDTH 573 0
DWIDTH 10 0
BBX 10 10 0 0
BITMAP
0E00
3F80
7F80
79C0
71C0
FFC0
7000
7F80
3F80
1F80
ENDCHAR
STARTCHAR f
ENCODING 102
SWIDTH 450 0
DWIDTH 8 0
BBX 8 14 0 0
BITMAP
0E
1E
3E
38
38
FF
FF
7E
38
38
38
38
38
38
ENDCHAR
STARTCHAR g
ENCODING 103
SWIDTH 585 0
DWIDTH 11 0
BBX 10 14 0 -4
BITMAP
0080
3FC0
7FC0
7FC0
F3C0
F1C0
73C0
7FC0
3FC0
1DC0
23C0
7F80
7F80
1E00
ENDCHAR
STARTCHAR h
ENCODING 104
SWIDTH 605 0
DWIDTH 11 0
BBX 9 14 1 0
BITMAP
E000
E000
E000
E000
E000
FF00
FF00
FF80
E380
E380
E380
E380
E380
E380
ENDCHAR
STARTCHAR i
ENCODING 105
SWIDTH 255 0
DWIDTH 5 0
BBX 3 14 1 0
BITMAP
E0
E0
E0
00
00
E0
E0
E0
E0
E0
E0
E0
E0
E0
ENDCHAR
STARTCHAR j
ENCODING 106
SWIDTH 252 0
DWIDTH 5 0
BBX 6 18 -2 -4
BITMAP
1C
1C
1C
00
08
1C
1C
1C
1C
1C
1C
1C
1C
1C
3C
F8
F8
E0
ENDCHAR
STARTCHAR k
ENCODING 107
SWIDTH 536 0
DWIDTH 10 0
BBX 8 14 1 0
BITMAP
E0
E0
E0
E0
E0
E6
EF
FE
FC
FC
FE
FF
EF
E3
ENDCHAR
STARTCHAR l
ENCODING 108
SWIDTH 327 0
DWIDTH 6 0
BBX 5 14 1 0
BITMAP
E0
E0
E0
E0
E0
E0
E0
E0
E0
E0
E0
F0
F8
70
ENDCHAR
STARTCHAR m
ENCODING 109
SWIDTH 851 0
DWIDTH 15 0
BBX 14 10 1 0
BITMAP
0820
FEF8
FFF8
FFF8
E73C
E73C
E73C
E73C
E73C
E718
ENDCHAR
STARTCHAR n
ENCODING 110
SWIDTH 606 0
DWIDTH 11 0
BBX 9 9 1 0
BITMAP
FF00
FF00
FF80
E380
E380
E380
E380
E380
E380
ENDCHAR
STARTCHAR o
ENCODING 111
SWIDTH 600 0
DWIDTH 11 0
BBX 10 10 0 0
BITMAP
0E00
3F80
7FC0
7BC0
71C0
F1C0
71C0
7FC0
3F80
1F00
ENDCHAR
STARTCHAR p
ENCODING 112
SWIDTH 582 0
DWIDTH 10 0
BBX 9 13 1 -4
BITMAP
FE00
FF00
FF80
E380
E380
F780
FF00
FF00
EC00
E000
E000
E000
E000
ENDCHAR
STARTCHAR q
ENCODING 113
SWIDTH 582 0
DWIDTH 10 0
BBX 10 13 0 -4
BITMAP
3FC0
7FC0
7FC0
F3C0
F1C0
73C0
7FC0
3FC0
1DC0
01C0
01C0
01C0
01C0
ENDCHAR
STARTCHAR r
ENCODING 114
SWIDTH 457 0
DWIDTH 8 0
BBX 7 10 1 0
BITMAP
0C
FE
FE
FC
E0
E0
E0
E0
E0
E0
ENDCHAR
STARTCHAR s
ENCODING 115
SWIDTH 489 0
DWIDTH 9 0
BBX 8 10 0 0
BITMAP
1C
7F
7F
70
7E
3F
1F
77
FF
7E
ENDCHAR
STARTCHAR t
ENCODING 116
SWIDTH 449 0
DWIDTH 8 0
BBX 8 13 0 0
BITMAP
38
38
38
38
FF
FF
7E
38
38
38
3E
3E
1E
ENDCHAR
STARTCHAR u
ENCODING 117
SWIDTH 606 0
DWIDTH 11 0
BBX 9 10 1 0
BITMAP
4100
E380
E380
E380
E380
E380
E780
FF80
7F80
3B80
ENDCHAR
STARTCHAR v
ENCODING 118
SWIDTH 638 0
DWIDTH 11 0
BBX 11 10 0 0
BITMAP
2040
E0E0
F1E0
79E0
3BC0
3F80
1F80
1F00
0F00
0600
ENDCHAR
STARTCHAR w
ENCODING 119
SWIDTH 793 0
DWIDTH 14 0
BBX 14 10 0 0
BITMAP
2108
E39C
F7BC
77B8
7FF8
3FF8
3FF0
1EF0
1CE0
1C60
ENDCHAR
STARTCHAR x
ENCODING 120
SWIDTH 567 0
DWIDTH 10 0
BBX 10 10 0 0
BITMAP
2080
71C0
FBC0
7F80
3F00
1F00
3F80
7FC0
F3C0
6180
ENDCHAR
STARTCHAR y
ENCODING 121
SWIDTH 604 0
DWIDTH 11 0
BBX 11 14 0 -4
BITMAP
2080
F1E0
71C0
79C0
3B80
3F80
1F80
1F00
0F00
0E00
1E00
1C00
3C00
1800
ENDCHAR
STARTCHAR z
ENCODING 122
SWIDTH 586 0
DWIDTH 11 0
BBX 10 9 0 0
BITMAP
7FC0
7FC0
7F80
0F00
1E00
3C00
7FC0
FFC0
7FC0
ENDCHAR
STARTCHAR braceleft
ENCODING 123
SWIDTH 381 0
DWIDTH 7 0
BBX 7 18 0 -4
BITMAP
0C
1E
3C
38
38
38
38
38
F0
F0
38
38
38
38
38
38
1E
0C
ENDCHAR
STARTCHAR bar
ENCODING 124
SWIDTH 217 0
DWIDTH 4 0
BBX 2 18 1 -4
BITMAP
C0
C0
C0
C0
C0
C0
C0
C0
C0
C0
C0
C0
C0
C0
C0
C0
C0
C0
ENDCHAR
STARTCHAR braceright
ENCODING 125
SWIDTH 381 0
DWIDTH 7 0
BBX 7 18 0 -4
BITMAP
E0
F0
70
38
38
38
38
38
3E
1E
38
38
30
30
38
70
F0
E0
ENDCHAR
STARTCHAR asciitilde
ENCODING 126
SWIDTH 651 0
DWIDTH 12 0
BBX 9 4 1 3
BITMAP
3900
7F80
FF80
EF00
ENDCHAR
STARTCHAR exclamdown
ENCODING 161
SWIDTH 268 0
DWIDTH 5 0
BBX 3 13 1 -4
BITMAP
E0
E0
E0
00
00
E0
E0
E0
E0
E0
E0
E0
E0
ENDCHAR
STARTCHAR cent
ENCODING 162
SWIDTH 434 0
DWIDTH 8 0
BBX 7 13 0 -1
BITMAP
18
18
18
3E
7E
7E
E0
E0
7E
7E
1C
18
18
ENDCHAR
STARTCHAR sterling
ENCODING 163
SWIDTH 675 0
DWIDTH 12 0
BBX 12 13 0 0
BITMAP
0FC0
1FE0
3FF0
3860
3800
7E00
FF00
FF00
1C00
3800
3FF0
7FF0
3FF0
ENDCHAR
STARTCHAR currency
ENCODING 164
SWIDTH 677 0
DWIDTH 12 0
BBX 12 14 0 0
BITMAP
6020
E070
7FE0
3FC0
79E0
70E0
7060
7060
70E0
79E0
3FC0
7FE0
E070
6020
ENDCHAR
STARTCHAR yen
ENCODING 165
SWIDTH 677 0
DWIDTH 12 0
BBX 12 13 0 0
BITMAP
6060
F0F0
78E0
79E0
3FC0
1F80
1F80
3FC0
0700
0700
3FC0
3FC0
0600
ENDCHAR
STARTCHAR brokenbar
ENCODING 166
SWIDTH 215 0
DWIDTH 4 0
BBX 2 18 1 -4
BITMAP
C0
C0
C0
C0
C0
C0
C0
C0
00
00
C0
C0
C0
C0
C0
C0
C0
C0
ENDCHAR
STARTCHAR section
ENCODING 167
SWIDTH 560 0
DWIDTH 10 0
BBX 10 18 0 -4
BITMAP
1E00
3F80
7F80
7300
7000
7E00
3F80
7F80
73C0
71C0
7F80
3F80
0F80
03C0
73C0
FF80
7F80
3E00
ENDCHAR
STARTCHAR dieresis
ENCODING 168
SWIDTH 489 0
DWIDTH 9 0
BBX 8 3 1 11
BITMAP
E7
E7
E7
ENDCHAR
STARTCHAR copyright
ENCODING 169
SWIDTH 711 0
DWIDTH 13 0
BBX 12 11 0 2
BITMAP
1FC0
7060
6730
4F90
D810
D810
5810
4F90
6730
30E0
1FC0
ENDCHAR
STARTCHAR ordfeminine
ENCODING 170
SWIDTH 445 0
DWIDTH 8 0
BBX 7 7 0 6
BITMAP
3E
7E
6E
E6
6E
7E
3E
ENDCHAR
STARTCHAR guillemotleft
ENCODING 171
SWIDTH 668 0
DWIDTH 12 0
BBX 12 9 0 0
BITMAP
0C60
1CF0
39E0
73C0
F380
7BC0
3DE0
1CF0
0C60
ENDCHAR
STARTCHAR logicalnot
ENCODING 172
SWIDTH 526 0
DWIDTH 9 0
BBX 9 6 0 2
BITMAP
FF80
FF80
FF80
0180
0180
0180
ENDCHAR
STARTCHAR registered
ENCODING 174
SWIDTH 711 0
DWIDTH 13 0
BBX 12 11 0 2
BITMAP
1FC0
7060
6F30
4F90
CD90
CF90
4F90
4DB0
6CB0
30E0
1FC0
ENDCHAR
STARTCHAR degree
ENCODING 176
SWIDTH 407 0
DWIDTH 7 0
BBX 7 7 0 7
BITMAP
38
7C
6E
E6
6E
7C
18
ENDCHAR
STARTCHAR plusminus
ENCODING 177
SWIDTH 505 0
DWIDTH 9 0
BBX 9 10 0 0
BITMAP
1C00
1C00
7F00
FF80
7F00
1C00
1C00
0000
7F00
7F00
ENDCHAR
STARTCHAR twosuperior
ENCODING 178
SWIDTH 455 0
DWIDTH 8 0
BBX 8 10 0 4
BITMAP
10
3E
7E
E7
E7
0E
3C
7E
FF
7F
ENDCHAR
STARTCHAR threesuperior
ENCODING 179
SWIDTH 457 0
DWIDTH 8 0
BBX 8 10 0 4
BITMAP
08
3E
7E
67
1E
1E
67
E7
7E
3E
ENDCHAR
STARTCHAR acute
ENCODING 180
SWIDTH 605 0
DWIDTH 11 0
BBX 5 4 3 10
BITMAP
38
F8
F8
C0
ENDCHAR
STARTCHAR mu
ENCODING 181
SWIDTH 601 0
DWIDTH 11 0
BBX 9 14 1 -4
BITMAP
0100
E380
E380
E380
E380
E380
E780
FF80
FF80
FB80
E000
E000
E000
E000
ENDCHAR
STARTCHAR paragraph
ENCODING 182
SWIDTH 614 0
DWIDTH 11 0
BBX 9 15 1 -4
BITMAP
FF80
FF80
F980
F980
F980
F980
1980
1980
1980
1980
1980
1980
1980
1980
1980
ENDCHAR
STARTCHAR periodcentered
ENCODING 183
SWIDTH 237 0
DWIDTH 4 0
BBX 4 3 0 4
BITMAP
70
F0
70
ENDCHAR
STARTCHAR cedilla
ENCODING 184
SWIDTH 559 0
DWIDTH 10 0
BBX 4 4 3 -3
BITMAP
40
E0
30
E0
ENDCHAR
STARTCHAR onesuperior
ENCODING 185
SWIDTH 321 0
DWIDTH 6 0
BBX 5 9 0 4
BITMAP
38
78
F8
78
38
38
38
38
38
ENDCHAR
STARTCHAR ordmasculine
ENCODING 186
SWIDTH 439 0
DWIDTH 8 0
BBX 7 7 0 6
BITMAP
18
7E
7E
E6
66
7E
3C
ENDCHAR
STARTCHAR guillemotright
ENCODING 187
SWIDTH 669 0
DWIDTH 12 0
BBX 12 9 0 0
BITMAP
6300
F380
79C0
3CE0
1CF0
3DE0
7BC0
F380
6300
ENDCHAR
STARTCHAR onequarter
ENCODING 188
SWIDTH 786 0
DWIDTH 14 0
BBX 12 15 1 -1
BITMAP
30C0
7080
F180
F100
3300
3600
36B0
2DB0
0DB0
19B0
1BF0
31F0
3030
6030
2000
ENDCHAR
STARTCHAR onehalf
ENCODING 189
SWIDTH 804 0
DWIDTH 14 0
BBX 12 15 1 -1
BITMAP
30C0
7080
F180
F100
3300
3600
36C0
2DF0
0DB0
1BB0
1870
31E0
33F0
61F0
2000
ENDCHAR
STARTCHAR threequarters
ENCODING 190
SWIDTH 842 0
DWIDTH 15 0
BBX 13 15 1 -1
BITMAP
7060
F840
DCC0
3880
3D80
CF00
FB58
76D8
06D8
0CD8
0CF8
19F8
1818
3018
1000
ENDCHAR
STARTCHAR questiondown
ENCODING 191
SWIDTH 511 0
DWIDTH 9 0
BBX 9 14 0 -4
BITMAP
0800
1C00
1C00
1C00
0000
1C00
1C00
7C00
7800
E300
E380
7F80
7F00
1E00
ENDCHAR
STARTCHAR Agrave
ENCODING 192
SWIDTH 765 0
DWIDTH 14 0
BBX 14 17 0 0
BITMAP
0E00
0F80
0780
0000
0300
0780
0780
0FC0
0FC0
1FE0
1CE0
3CF0
3FF0
7FF8
7038
F03C
6038
ENDCHAR
STARTCHAR Aacute
ENCODING 193
SWIDTH 765 0
DWIDTH 14 0
BBX 14 18 0 0
BITMAP
0040
03C0
07C0
0700
0000
0300
0780
0780
0FC0
0FC0
1FE0
1CE0
3CF0
3FF0
7FF8
7038
F03C
6038
ENDCHAR
STARTCHAR Acircumflex
ENCODING 194
SWIDTH 765 0
DWIDTH 14 0
BBX 14 18 0 0
BITMAP
0200
0FC0
1FE0
0CC0
0000
0300
0780
0780
0FC0
0FC0
1FE0
1CE0
3CF0
3FF0
7FF8
7038
F03C
6038
ENDCHAR
STARTCHAR Atilde
ENCODING 195
SWIDTH 765 0
DWIDTH 14 0
BBX 14 18 0 0
BITMAP
0440
0FC0
1FC0
0980
0000
0300
0780
0780
0FC0
0FC0
1FE0
1CE0
3CF0
3FF0
7FF8
7038
F03C
6038
ENDCHAR
STARTCHAR Adieresis
ENCODING 196
SWIDTH 765 0
DWIDTH 14 0
BBX 14 18 0 0
BITMAP
0840
1CE0
1CE0
1CC0
0000
0300
0780
0780
0FC0
0FC0
1FE0
1CE0
3CF0
3FF0
7FF8
7038
F03C
6038
ENDCHAR
STARTCHAR Aring
ENCODING 197
SWIDTH 765 0
DWIDTH 14 0
BBX 14 17 0 0
BITMAP
0200
0780
0480
0480
0700
0780
0780
0FC0
0FC0
1FE0
1CE0
3CF0
3FF0
7FF8
7038
F03C
6038
ENDCHAR
STARTCHAR AE
ENCODING 198
SWIDTH 1148 0
DWIDTH 21 0
BBX 20 13 0 0
BITMAP
007FF0
007FF0
00FFF0
01F800
03F800
07BFC0
0F3FC0
1E3FC0
3FF800
7FF800
F83FF0
F03FF0
603FF0
ENDCHAR
STARTCHAR Ccedilla
ENCODING 199
SWIDTH 679 0
DWIDTH 12 0
BBX 12 16 0 -3
BITMAP
0FC0
1FF0
3FF0
7860
7000
F000
F000
7000
7000
7860
3FF0
1FF0
0FC0
0380
0180
0380
ENDCHAR
STARTCHAR Egrave
ENCODING 200
SWIDTH 638 0
DWIDTH 11 0
BBX 10 17 1 0
BITMAP
1C00
3F00
0E00
0000
FFC0
FFC0
FFC0
E000
E000
FF00
FF00
FF00
E000
E000
FFC0
FFC0
FFC0
ENDCHAR
STARTCHAR Eacute
ENCODING 201
SWIDTH 638 0
DWIDTH 11 0
BBX 10 18 1 0
BITMAP
0200
1F00
1F00
1C00
0000
FFC0
FFC0
FFC0
E000
E000
FF00
FF00
FF00
E000
E000
FFC0
FFC0
FFC0
ENDCHAR
STARTCHAR Ecircumflex
ENCODING 202
SWIDTH 638 0
DWIDTH 11 0
BBX 10 18 1 0
BITMAP
0800
3F00
7F00
3300
0000
FFC0
FFC0
FFC0
E000
E000
FF00
FF00
FF00
E000
E000
FFC0
FFC0
FFC0
ENDCHAR
STARTCHAR Edieresis
ENCODING 203
SWIDTH 638 0
DWIDTH 11 0
BBX 10 18 1 0
BITMAP
2100
7380
7380
7300
0000
FFC0
FFC0
FFC0
E000
E000
FF00
FF00
FF00
E000
E000
FFC0
FFC0
FFC0
ENDCHAR
STARTCHAR Igrave
ENCODING 204
SWIDTH 267 0
DWIDTH 5 0
BBX 5 17 -1 0
BITMAP
F0
F8
78
00
38
38
38
38
38
38
38
38
38
38
38
38
38
ENDCHAR
STARTCHAR Iacute
ENCODING 205
SWIDTH 269 0
DWIDTH 5 0
BBX 6 18 0 0
BITMAP
08
7C
FC
70
00
70
70
70
70
70
70
70
70
70
70
70
70
70
ENDCHAR
STARTCHAR Icircumflex
ENCODING 206
SWIDTH 270 0
DWIDTH 5 0
BBX 7 18 -1 0
BITMAP
10
FE
FE
C4
00
38
38
38
38
38
38
38
38
38
38
38
38
38
ENDCHAR
STARTCHAR Idieresis
ENCODING 207
SWIDTH 268 0
DWIDTH 5 0
BBX 9 18 -2 0
BITMAP
2200
F700
F780
6300
0000
1C00
1C00
1C00
1C00
1C00
1C00
1C00
1C00
1C00
1C00
1C00
1C00
1C00
ENDCHAR
STARTCHAR Eth
ENCODING 208
SWIDTH 775 0
DWIDTH 14 0
BBX 14 13 0 0
BITMAP
3FC0
3FE0
3FF0
3878
3838
7E38
FE3C
7C38
3838
38F8
3FF0
3FE0
3F80
ENDCHAR
STARTCHAR Ntilde
ENCODING 209
SWIDTH 720 0
DWIDTH 13 0
BBX 11 18 1 0
BITMAP
0900
3F80
3F80
1300
0000
E0E0
F0E0
F0E0
F8E0
FCE0
FEE0
EEE0
EFE0
E7E0
E3E0
E1E0
E1E0
E0E0
ENDCHAR
STARTCHAR Ograve
ENCODING 210
SWIDTH 775 0
DWIDTH 14 0
BBX 14 17 0 0
BITMAP
0F00
0F80
0780
0000
0FC0
3FE0
3FF0
7878
7038
7038
F03C
7038
7038
7878
3FF0
1FE0
0FC0
ENDCHAR
STARTCHAR Oacute
ENCODING 211
SWIDTH 775 0
DWIDTH 14 0
BBX 14 18 0 0
BITMAP
0080
03C0
07C0
0700
0000
0FC0
3FE0
3FF0
7878
7038
7038
F03C
7038
7038
7878
3FF0
1FE0
0FC0
ENDCHAR
STARTCHAR Ocircumflex
ENCODING 212
SWIDTH 775 0
DWIDTH 14 0
BBX 14 18 0 0
BITMAP
0100
0FC0
1FE0
0CC0
0000
0FC0
3FE0
3FF0
7878
7038
7038
F03C
7038
7038
7878
3FF0
1FE0
0FC0
ENDCHAR
STARTCHAR Otilde
ENCODING 213
SWIDTH 775 0
DWIDTH 14 0
BBX 14 18 0 0
BITMAP
0240
0FE0
0FE0
0DC0
0000
0FC0
3FE0
3FF0
7878
7038
7038
F03C
7038
7038
7878
3FF0
1FE0
0FC0
ENDCHAR
STARTCHAR Odieresis
ENCODING 214
SWIDTH 775 0
DWIDTH 14 0
BBX 14 18 0 0
BITMAP
0840
1CE0
1CE0
1CC0
0000
0FC0
3FE0
3FF0
7878
7038
7038
F03C
7038
7038
7878
3FF0
1FE0
0FC0
ENDCHAR
STARTCHAR multiply
ENCODING 215
SWIDTH 521 0
DWIDTH 9 0
BBX 9 8 0 1
BITMAP
6300
F780
7F00
3E00
3E00
7F00
F780
6380
ENDCHAR
STARTCHAR Oslash
ENCODING 216
SWIDTH 775 0
DWIDTH 14 0
BBX 14 15 0 -1
BITMAP
0060
0FF0
3FE0
3FF0
79F8
73F8
73B8
F7BC
7738
7F38
7E78
3FF0
1FE0
1FC0
1800
ENDCHAR
STARTCHAR Ugrave
ENCODING 217
SWIDTH 726 0
DWIDTH 13 0
BBX 11 17 1 0
BITMAP
3C00
3E00
1E00
0000
E0E0
E0E0
E0E0
E0E0
E0E0
E0E0
E0E0
E0E0
E0E0
F1E0
7FC0
7FC0
1F00
ENDCHAR
STARTCHAR Uacute
ENCODING 218
SWIDTH 726 0
DWIDTH 13 0
BBX 11 18 1 0
BITMAP
0100
0780
0F80
0E00
0000
E0E0
E0E0
E0E0
E0E0
E0E0
E0E0
E0E0
E0E0
E0E0
F1E0
7FC0
7FC0
1F00
ENDCHAR
STARTCHAR Ucircumflex
ENCODING 219
SWIDTH 726 0
DWIDTH 13 0
BBX 11 18 1 0
BITMAP
0400
1F80
3F80
1980
0000
E0E0
E0E0
E0E0
E0E0
E0E0
E0E0
E0E0
E0E0
E0E0
F1E0
7FC0
7FC0
1F00
ENDCHAR
STARTCHAR Udieresis
ENCODING 220
SWIDTH 726 0
DWIDTH 13 0
BBX 11 18 1 0
BITMAP
1100
3BC0
3BC0
3180
0000
E0E0
E0E0
E0E0
E0E0
E0E0
E0E0
E0E0
E0E0
E0E0
F1E0
7FC0
7FC0
1F00
ENDCHAR
STARTCHAR Yacute
ENCODING 221
SWIDTH 686 0
DWIDTH 12 0
BBX 12 18 0 0
BITMAP
0080
0780
0F80
0E00
0000
6070
F0F0
78E0
39E0
3FC0
1F80
0F80
0F00
0700
0700
0700
0700
0700
ENDCHAR
STARTCHAR Thorn
ENCODING 222
SWIDTH 634 0
DWIDTH 11 0
BBX 10 13 1 0
BITMAP
E000
E000
FF00
FF80
FFC0
E1C0
E1C0
E3C0
FF80
FF80
FF00
E000
E000
ENDCHAR
STARTCHAR germandbls
ENCODING 223
SWIDTH 633 0
DWIDTH 11 0
BBX 10 15 1 -1
BITMAP
0800
7F00
FF00
E700
E700
EE00
EE00
EF00
E780
E3C0
E1C0
EFC0
EFC0
EF80
C000
ENDCHAR
STARTCHAR agrave
ENCODING 224
SWIDTH 596 0
DWIDTH 11 0
BBX 10 14 0 0
BITMAP
1C00
1F00
1F00
0300
0000
3FC0
7FC0
7FC0
71C0
F1C0
73C0
7FC0
3FC0
1DC0
ENDCHAR
STARTCHAR aacute
ENCODING 225
SWIDTH 596 0
DWIDTH 11 0
BBX 10 14 0 0
BITMAP
0300
1F80
1F00
0800
0000
3FC0
7FC0
7FC0
71C0
F1C0
73C0
7FC0
3FC0
1DC0
ENDCHAR
STARTCHAR acircumflex
ENCODING 226
SWIDTH 596 0
DWIDTH 11 0
BBX 10 14 0 0
BITMAP
0E00
3F80
3F80
0080
0000
3FC0
7FC0
7FC0
71C0
F1C0
73C0
7FC0
3FC0
1DC0
ENDCHAR
STARTCHAR atilde
ENCODING 227
SWIDTH 596 0
DWIDTH 11 0
BBX 10 14 0 0
BITMAP
1C80
1F80
3F80
0000
0000
3FC0
7FC0
7FC0
71C0
F1C0
73C0
7FC0
3FC0
1DC0
ENDCHAR
STARTCHAR adieresis
ENCODING 228
SWIDTH 596 0
DWIDTH 11 0
BBX 10 14 0 0
BITMAP
39C0
39C0
39C0
0000
0000
3FC0
7FC0
7FC0
71C0
F1C0
73C0
7FC0
3FC0
1DC0
ENDCHAR
STARTCHAR aring
ENCODING 229
SWIDTH 596 0
DWIDTH 11 0
BBX 10 14 0 0
BITMAP
0400
0F00
0900
0600
0000
3FC0
7FC0
7FC0
71C0
F1C0
73C0
7FC0
3FC0
1DC0
ENDCHAR
STARTCHAR ae
ENCODING 230
SWIDTH 910 0
DWIDTH 16 0
BBX 16 10 0 0
BITMAP
0C18
7FFE
7FFF
73E7
23C7
3FFF
7FC0
E3FE
7FFE
7E7E
ENDCHAR
STARTCHAR ccedilla
ENCODING 231
SWIDTH 524 0
DWIDTH 9 0
BBX 9 13 0 -3
BITMAP
0E00
3F80
7F80
7F00
F000
F000
7300
7F80
3F80
1F00
0E00
0200
0E00
ENDCHAR
STARTCHAR egrave
ENCODING 232
SWIDTH 573 0
DWIDTH 10 0
BBX 10 14 0 0
BITMAP
1800
1F00
1F00
0200
0E00
3F80
7F80
79C0
71C0
FFC0
7000
7F80
3F80
1F80
ENDCHAR
STARTCHAR eacute
ENCODING 233
SWIDTH 573 0
DWIDTH 10 0
BBX 10 14 0 0
BITMAP
0300
1F00
1F00
0800
0E00
3F80
7F80
79C0
71C0
FFC0
7000
7F80
3F80
1F80
ENDCHAR
STARTCHAR ecircumflex
ENCODING 234
SWIDTH 573 0
DWIDTH 10 0
BBX 10 14 0 0
BITMAP
0E00
3F80
3F80
0100
0E00
3F80
7F80
79C0
71C0
FFC0
7000
7F80
3F80
1F80
ENDCHAR
STARTCHAR edieresis
ENCODING 235
SWIDTH 573 0
DWIDTH 10 0
BBX 10 14 0 0
BITMAP
7380
7380
7380
0000
0E00
3F80
7F80
79C0
71C0
FFC0
7000
7F80
3F80
1F80
ENDCHAR
STARTCHAR igrave
ENCODING 236
SWIDTH 255 0
DWIDTH 5 0
BBX 5 14 -1 0
BITMAP
60
F8
F8
18
00
38
38
38
38
38
38
38
38
38
ENDCHAR
STARTCHAR iacute
ENCODING 237
SWIDTH 255 0
DWIDTH 5 0
BBX 6 14 0 0
BITMAP
18
FC
F8
40
00
70
70
70
70
70
70
70
70
70
ENDCHAR
STARTCHAR icircumflex
ENCODING 238
SWIDTH 255 0
DWIDTH 5 0
BBX 7 14 -1 0
BITMAP
38
FE
FE
04
00
38
38
38
38
38
38
38
38
38
ENDCHAR
STARTCHAR idieresis
ENCODING 239
SWIDTH 255 0
DWIDTH 5 0
BBX 8 14 -2 0
BITMAP
67
F7
E7
00
00
1C
1C
1C
1C
1C
1C
1C
1C
1C
ENDCHAR
STARTCHAR eth
ENCODING 240
SWIDTH 585 0
DWIDTH 11 0
BBX 10 15 0 0
BITMAP
0200
1E00
1E00
0F00
1B80
0180
1FC0
7FC0
7FC0
71C0
F1C0
71C0
7FC0
3F80
1F00
ENDCHAR
STARTCHAR ntilde
ENCODING 241
SWIDTH 606 0
DWIDTH 11 0
BBX 9 14 1 0
BITMAP
3B00
7F00
6E00
0000
0000
FF00
FF00
FF80
E380
E380
E380
E380
E380
E380
ENDCHAR
STARTCHAR ograve
ENCODING 242
SWIDTH 600 0
DWIDTH 11 0
BBX 10 14 0 0
BITMAP
1800
1F00
1F00
0200
0E00
3F80
7FC0
7BC0
71C0
F1C0
71C0
7FC0
3F80
1F00
ENDCHAR
STARTCHAR oacute
ENCODING 243
SWIDTH 600 0
DWIDTH 11 0
BBX 10 14 0 0
BITMAP
0300
1F00
1F00
0800
0E00
3F80
7FC0
7BC0
71C0
F1C0
71C0
7FC0
3F80
1F00
ENDCHAR
STARTCHAR ocircumflex
ENCODING 244
SWIDTH 600 0
DWIDTH 11 0
BBX 10 14 0 0
BITMAP
0E00
3F80
3F80
0100
0E00
3F80
7FC0
7BC0
71C0
F1C0
71C0
7FC0
3F80
1F00
ENDCHAR
STARTCHAR otilde
ENCODING 245
SWIDTH 600 0
DWIDTH 11 0
BBX 10 14 0 0
BITMAP
1D80
3F80
3700
0000
0E00
3F80
7FC0
7BC0
71C0
F1C0
71C0
7FC0
3F80
1F00
ENDCHAR
STARTCHAR odieresis
ENCODING 246
SWIDTH 600 0
DWIDTH 11 0
BBX 10 14 0 0
BITMAP
3380
7B80
7380
0000
0E00
3F80
7FC0
7BC0
71C0
F1C0
71C0
7FC0
3F80
1F00
ENDCHAR
STARTCHAR divide
ENCODING 247
SWIDTH 503 0
DWIDTH 9 0
BBX 9 10 0 0
BITMAP
1C00
1C00
1C00
0000
7F80
FF80
0000
1C00
1C00
1C00
ENDCHAR
STARTCHAR oslash
ENCODING 248
SWIDTH 600 0
DWIDTH 11 0
BBX 10 15 0 -3
BITMAP
01C0
01C0
0F80
3F80
7FC0
7BC0
71C0
F1C0
71C0
7FC0
3F80
3F00
7800
7000
3000
ENDCHAR
STARTCHAR ugrave
ENCODING 249
SWIDTH 606 0
DWIDTH 11 0
BBX 9 14 1 0
BITMAP
3000
3E00
3E00
0400
4100
E380
E380
E380
E380
E380
E780
FF80
7F80
3B80
ENDCHAR
STARTCHAR uacute
ENCODING 250
SWIDTH 606 0
DWIDTH 11 0
BBX 9 14 1 0
BITMAP
0600
3F00
1E00
1000
4100
E380
E380
E380
E380
E380
E780
FF80
7F80
3B80
ENDCHAR
STARTCHAR ucircumflex
ENCODING 251
SWIDTH 606 0
DWIDTH 11 0
BBX 9 14 1 0
BITMAP
1C00
7F00
7F00
0200
4100
E380
E380
E380
E380
E380
E780
FF80
7F80
3B80
ENDCHAR
STARTCHAR udieresis
ENCODING 252
SWIDTH 606 0
DWIDTH 11 0
BBX 9 14 1 0
BITMAP
6700
F700
F700
0000
4100
E380
E380
E380
E380
E380
E780
FF80
7F80
3B80
ENDCHAR
STARTCHAR yacute
ENCODING 253
SWIDTH 604 0
DWIDTH 11 0
BBX 11 18 0 -4
BITMAP
0300
1F80
1F00
0800
2080
F1E0
71C0
79C0
3B80
3F80
1F80
1F00
0F00
0E00
1E00
1C00
3C00
1800
ENDCHAR
STARTCHAR thorn
ENCODING 254
SWIDTH 580 0
DWIDTH 10 0
BBX 9 18 1 -4
BITMAP
E000
E000
E000
E000
E000
FE00
FF00
FF80
E380
E380
E780
FF00
FF00
FC00
E000
E000
E000
E000
ENDCHAR
STARTCHAR ydieresis
ENCODING 255
SWIDTH 604 0
DWIDTH 11 0
BBX 11 18 0 -4
BITMAP
3980
3BC0
3BC0
0000
2080
F1E0
71C0
79C0
3B80
3F80
1F80
1F00
0F00
0E00
1E00
1C00
3C00
1800
ENDCHAR
STARTCHAR dotlessi
ENCODING 305
SWIDTH 255 0
DWIDTH 5 0
BBX 3 9 1 0
BITMAP
E0
E0
E0
E0
E0
E0
E0
E0
E0
ENDCHAR
STARTCHAR Lslash
ENCODING 321
SWIDTH 687 0
DWIDTH 12 0
BBX 12 13 0 0
BITMAP
1C00
1C00
1C00
1C00
1F00
3F00
FE00
7C00
1C00
1C00
1FF0
1FF0
1FF0
ENDCHAR
STARTCHAR lslash
ENCODING 322
SWIDTH 468 0
DWIDTH 8 0
BBX 8 14 0 0
BITMAP
18
3C
3C
3C
3C
3F
3F
FE
7C
3C
3C
3E
1E
1E
ENDCHAR
STARTCHAR OE
ENCODING 338
SWIDTH 1092 0
DWIDTH 20 0
BBX 19 13 0 0
BITMAP
0FFFE0
1FFFE0
3FFFE0
787000
707000
707F80
F07F80
707F80
707000
787000
3FFFE0
1FFFE0
0FFFE0
ENDCHAR
STARTCHAR oe
ENCODING 339
SWIDTH 944 0
DWIDTH 17 0
BBX 17 10 0 0
BITMAP
0E1800
3FFE00
7FFF00
7FE700
F1E780
F1FF00
71E000
7FFF00
3FFF00
1F3E00
ENDCHAR
STARTCHAR Scaron
ENCODING 352
SWIDTH 583 0
DWIDTH 11 0
BBX 10 18 0 0
BITMAP
2100
3F80
3F80
0E00
0000
3F00
7F80
7F80
7100
7000
7F00
3F80
0FC0
21C0
71C0
FFC0
7F80
3F00
ENDCHAR
STARTCHAR scaron
ENCODING 353
SWIDTH 489 0
DWIDTH 9 0
BBX 8 14 0 0
BITMAP
66
7F
7E
08
1C
7F
7F
70
7E
3F
1F
77
FF
7E
ENDCHAR
STARTCHAR Ydieresis
ENCODING 376
SWIDTH 686 0
DWIDTH 12 0
BBX 12 18 0 0
BITMAP
1080
39C0
39C0
19C0
0000
6070
F0F0
78E0
39E0
3FC0
1F80
0F80
0F00
0700
0700
0700
0700
0700
ENDCHAR
STARTCHAR Zcaron
ENCODING 381
SWIDTH 643 0
DWIDTH 12 0
BBX 11 18 0 0
BITMAP
1080
3F80
3F80
0E00
0000
7FE0
FFE0
7FC0
03C0
0780
0F00
0F00
1E00
3C00
7800
7FE0
FFE0
7FE0
ENDCHAR
STARTCHAR zcaron
ENCODING 382
SWIDTH 586 0
DWIDTH 11 0
BBX 10 14 0 0
BITMAP
3380
3F80
3F80
0400
0000
7FC0
7FC0
7F80
0F00
1E00
3C00
7FC0
FFC0
7FC0
ENDCHAR
STARTCHAR florin
ENCODING 402
SWIDTH 529 0
DWIDTH 10 0
BBX 9 17 0 -4
BITMAP
0780
0F80
0F80
0E00
3F80
7F80
7F80
1C00
1C00
1C00
1C00
1C00
1C00
1C00
F800
F800
F000
ENDCHAR
STARTCHAR circumflex
ENCODING 710
SWIDTH 603 0
DWIDTH 11 0
BBX 7 4 2 10
BITMAP
38
FE
FE
04
ENDCHAR
STARTCHAR caron
ENCODING 711
SWIDTH 600 0
DWIDTH 11 0
BBX 7 4 2 10
BITMAP
CC
FE
FE
10
ENDCHAR
STARTCHAR dotaccent
ENCODING 729
SWIDTH 285 0
DWIDTH 5 0
BBX 3 3 1 13
BITMAP
E0
E0
E0
ENDCHAR
STARTCHAR ring
ENCODING 730
SWIDTH 378 0
DWIDTH 7 0
BBX 5 5 1 12
BITMAP
20
F0
98
D8
70
ENDCHAR
STARTCHAR ogonek
ENCODING 731
SWIDTH 570 0
DWIDTH 10 0
BBX 4 4 3 -3
BITMAP
20
F0
C0
F0
ENDCHAR
STARTCHAR tilde
ENCODING 732
SWIDTH 584 0
DWIDTH 11 0
BBX 8 3 1 11
BITMAP
32
7F
FE
ENDCHAR
STARTCHAR endash
ENCODING 8211
SWIDTH 561 0
DWIDTH 10 0
BBX 10 3 0 3
BITMAP
FFC0
FFC0
7F80
ENDCHAR
STARTCHAR emdash
ENCODING 8212
SWIDTH 693 0
DWIDTH 12 0
BBX 12 3 0 3
BITMAP
FFF0
FFF0
7FE0
ENDCHAR
STARTCHAR quoteleft
ENCODING 8216
SWIDTH 237 0
DWIDTH 4 0
BBX 4 6 0 7
BITMAP
30
60
60
F0
F0
70
ENDCHAR
STARTCHAR quoteright
ENCODING 8217
SWIDTH 237 0
DWIDTH 4 0
BBX 4 6 0 7
BITMAP
70
F0
70
30
60
C0
ENDCHAR
STARTCHAR quotesinglbase
ENCODING 8218
SWIDTH 237 0
DWIDTH 4 0
BBX 4 6 0 -3
BITMAP
70
F0
70
20
60
C0
ENDCHAR
STARTCHAR quotedblleft
ENCODING 8220
SWIDTH 482 0
DWIDTH 9 0
BBX 8 6 0 7
BITMAP
33
66
66
F7
F7
77
ENDCHAR
STARTCHAR quotedblright
ENCODING 8221
SWIDTH 482 0
DWIDTH 9 0
BBX 8 6 0 7
BITMAP
77
F7
77
33
62
C6
ENDCHAR
STARTCHAR quotedblbase
ENCODING 8222
SWIDTH 482 0
DWIDTH 9 0
BBX 8 6 0 -3
BITMAP
77
F7
77
23
66
C4
ENDCHAR
STARTCHAR dagger
ENCODING 8224
SWIDTH 527 0
DWIDTH 9 0
BBX 9 16 0 -3
BITMAP
1C00
1C00
1C00
1C00
FF80
FF80
7F80
1C00
1C00
1C00
1C00
1C00
1C00
1C00
1C00
1C00
ENDCHAR
STARTCHAR daggerdbl
ENCODING 8225
SWIDTH 527 0
DWIDTH 9 0
BBX 9 16 0 -3
BITMAP
1C00
1C00
1C00
1C00
FF80
FF80
7F80
1C00
1C00
7F80
FF80
FF80
1C00
1C00
1C00
1C00
ENDCHAR
STARTCHAR bullet
ENCODING 8226
SWIDTH 342 0
DWIDTH 6 0
BBX 6 5 0 3
BITMAP
78
7C
FC
7C
78
ENDCHAR
STARTCHAR ellipsis
ENCODING 8230
SWIDTH 911 0
DWIDTH 16 0
BBX 16 3 0 0
BITMAP
71C7
F1C7
71C7
ENDCHAR
STARTCHAR perthousand
ENCODING 8240
SWIDTH 1223 0
DWIDTH 22 0
BBX 20 15 1 -1
BITMAP
006000
784000
FCC000
CC8000
CD8000
FD0000
FB0000
0270E0
06F9F0
0DDBB0
0D9B30
199B30
18F9F0
3071E0
100000
ENDCHAR
STARTCHAR guilsinglleft
ENCODING 8249
SWIDTH 383 0
DWIDTH 7 0
BBX 7 10 0 0
BITMAP
08
0C
1E
3C
78
F0
78
3C
1E
0C
ENDCHAR
STARTCHAR guilsinglright
ENCODING 8250
SWIDTH 383 0
DWIDTH 7 0
BBX 7 10 0 0
BITMAP
40
60
F0
78
3C
1E
3C
78
F0
60
ENDCHAR
STARTCHAR fraction
ENCODING 8260
SWIDTH 433 0
DWIDTH 8 0
BBX 8 15 1 -1
BITMAP
01
03
02
06
04
0C
08
18
30
30
60
60
C0
C0
80
ENDCHAR
STARTCHAR Euro
ENCODING 8364
SWIDTH 612 0
DWIDTH 11 0
BBX 11 14 0 0
BITMAP
07C0
1FE0
1FC0
3C00
3800
FFC0
7F80
3800
FFC0
3800
3C00
1FC0
1FE0
07C0
ENDCHAR
STARTCHAR trademark
ENCODING 8482
SWIDTH 840 0
DWIDTH 15 0
BBX 14 7 0 4
BITMAP
FFCC
FFDC
39FC
39FC
39FC
39CC
108C
ENDCHAR
STARTCHAR minus
ENCODING 8722
SWIDTH 581 0
DWIDTH 10 0
BBX 10 3 0 3
BITMAP
FFC0
FFC0
7F80
ENDCHAR
STARTCHAR f_f
ENCODING 64256
SWIDTH 803 0
DWIDTH 14 0
BBX 14 14 0 0
BITMAP
0E3C
1E7C
3EFC
38E0
38E0
FFFC
FFFC
7FFC
38E0
38E0
38E0
38E0
38E0
38E0
ENDCHAR
STARTCHAR fi
ENCODING 64257
SWIDTH 709 0
DWIDTH 13 0
BBX 12 14 0 0
BITMAP
0E70
1E70
3E70
3800
3800
FF70
FF70
7E70
3870
3870
3870
3870
3870
3870
ENDCHAR
STARTCHAR fl
ENCODING 64258
SWIDTH 774 0
DWIDTH 14 0
BBX 14 14 0 0
BITMAP
0E70
1E70
3E70
3870
3870
FF70
FF70
7E70
3870
3870
3870
387C
387C
383C
ENDCHAR
STARTCHAR f_f_i
ENCODING 64259
SWIDTH 1059 0
DWIDTH 19 0
BBX 18 14 0 0
BITMAP
0E3CC0
1E7DC0
3EFDC0
38E000
38E000
FFFDC0
FFFDC0
7FFDC0
38E1C0
38E1C0
38E1C0
38E1C0
38E1C0
38E1C0
ENDCHAR
STARTCHAR .notdef
ENCODING -1
SWIDTH 500 0
DWIDTH 9 0
BBX 1 1 0 0
BITMAP
00
ENDCHAR
STARTCHAR .null
ENCODING -1
SWIDTH 0 0
DWIDTH 0 0
BBX 1 1 0 0
BITMAP
00
ENDCHAR
STARTCHAR nonmarkingreturn
ENCODING -1
SWIDTH 333 0
DWIDTH 6 0
BBX 1 1 0 0
BITMAP
00
ENDCHAR
STARTCHAR f_t
ENCODING -1
SWIDTH 814 0
DWIDTH 15 0
BBX 14 14 0 0
BITMAP
0E00
1E60
3E70
38F0
38F0
FFFC
FFFC
7FFC
38F0
38F0
3870
387C
387C
383C
ENDCHAR
STARTCHAR t_t
ENCODING -1
SWIDTH 794 0
DWIDTH 14 0
BBX 14 13 0 0
BITMAP
3860
38E0
38E0
38E0
FFFC
FFFC
7FFC
38E0
38E0
38E0
3EF8
3E7C
0E38
ENDCHAR
STARTCHAR l_l
ENCODING -1
SWIDTH 626 0
DWIDTH 11 0
BBX 10 14 1 0
BITMAP
E700
E700
E700
E700
E700
E700
E700
E700
E700
E700
E700
F7C0
F7C0
73C0
ENDCHAR
STARTCHAR j_j
ENCODING -1
SWIDTH 521 0
DWIDTH 9 0
BBX 11 18 -2 -4
BITMAP
1CC0
1CE0
1CE0
0000
0000
1CE0
1CE0
1CE0
1CE0
1CE0
1CE0
1CE0
1CE0
1CE0
3CE0
FBC0
FBC0
F380
ENDCHAR
ENDFONT
